#!OML:ASF H:\BabyWalks\Project 1\Capture day 1\Session 1\baby.ASF
:FULLY-SPECIFIED
:DEGREES
921
root 41.6078 17.3187 -10.5188 681.271 80.2961 683.296
lowerback 19.8913 -0.0879391 3.84082
upperback 7.2823 1.15795 1.98547
thorax -3.22747 0.784744 -0.335762
lowerneck -0.249117 2.69896 8.39867
upperneck -11.2757 3.30225 -8.29067
head -3.00553 1.71635 -3.98477
rclavicle 8.92046e-015 -1.32192e-014
rhumerus -40.4925 4.62187 -78.1565
rradius 54.188
rwrist 0.485859
rhand -11.5196 -16.2297
rfingers 7.12502
rthumb 14.5199 -45.7016
lclavicle 8.92046e-015 -1.32192e-014
lhumerus -45.0426 -3.4242 79.3079
lradius 41.8133
lwrist -4.29587
lhand -0.140288 5.02153
lfingers 7.12502
lthumb 25.456 33.3415
rfemur -2.61779 16.8577 27.8139
rtibia 27.6204
rfoot -21.1154 1.45757
rtoes 3.08966
lfemur -22.0273 -1.9979 -6.09131
ltibia 30.7992
lfoot -9.84573 -6.98294
ltoes -4.26741
922
root 41.6552 17.3035 -10.5372 682.202 80.0317 684.331
lowerback 19.9601 -0.061268 3.59745
upperback 7.39379 1.14394 1.84416
thorax -3.14594 0.780752 -0.344938
lowerneck -0.307784 2.76171 8.35415
upperneck -11.243 3.41688 -7.89227
head -2.98798 1.75776 -3.85466
rclavicle 1.77974e-014 -7.83957e-015
rhumerus -40.5431 4.23794 -78.4228
rradius 54.3838
rwrist 0.598034
rhand -11.9479 -16.2592
rfingers 7.12502
rthumb 14.1072 -45.7603
lclavicle 1.77974e-014 -7.83957e-015
lhumerus -44.4451 -3.42077 78.8408
lradius 41.4016
lwrist -4.63788
lhand 0.140515 5.21255
lfingers 7.12502
lthumb 25.725 33.4939
rfemur -2.4974 16.921 27.8044
rtibia 27.9003
rfoot -21.3653 1.58742
rtoes 2.92474
lfemur -22.0865 -1.46822 -6.16529
ltibia 31.6178
lfoot -10.4943 -7.33863
ltoes -4.17619
923
root 41.7013 17.2894 -10.5547 682.733 79.7537 684.932
lowerback 20.0142 -0.0408415 3.44899
upperback 7.48337 1.13915 1.71139
thorax -3.07808 0.781357 -0.400709
lowerneck -0.357093 2.79777 8.30538
upperneck -11.2007 3.49548 -7.5004
head -2.97233 1.78203 -3.72559
rclavicle 3.70236e-015 2.29596e-014
rhumerus -40.6511 3.84081 -78.7
rradius 54.5746
rwrist 0.702531
rhand -12.3625 -16.2869
rfingers 7.12502
rthumb 13.7077 -45.8155
lclavicle 3.70236e-015 2.29596e-014
lhumerus -43.8333 -3.4185 78.3311
lradius 41.0946
lwrist -4.92624
lhand 0.519522 5.52339
lfingers 7.12502
lthumb 26.0879 33.7517
rfemur -2.38428 16.9828 27.8545
rtibia 28.1166
rfoot -21.5789 1.70945
rtoes 2.79641
lfemur -22.1758 -0.956757 -6.16559
ltibia 32.3913
lfoot -11.1058 -7.6494
ltoes -4.1918
924
root 41.7464 17.2766 -10.5722 682.933 79.4608 685.167
lowerback 20.0592 -0.0286865 3.39368
upperback 7.54993 1.14084 1.58883
thorax -3.02812 0.78524 -0.499869
lowerneck -0.397856 2.81201 8.26588
upperneck -11.1609 3.54264 -7.1403
head -2.96054 1.79195 -3.60778
rclavicle 8.44835e-016 1.19271e-015
rhumerus -40.8014 3.44798 -78.9854
rradius 54.7611
rwrist 0.798909
rhand -12.7068 -16.3371
rfingers 7.12502
rthumb 13.3758 -45.8878
lclavicle 8.44835e-016 1.19271e-015
lhumerus -43.2182 -3.39129 77.7841
lradius 40.9109
lwrist -5.14195
lhand 0.959481 5.94211
lfingers 7.12502
lthumb 26.5091 34.1076
rfemur -2.27208 17.0425 27.9578
rtibia 28.2555
rfoot -21.7476 1.82954
rtoes 2.68539
lfemur -22.2818 -0.463968 -6.09928
ltibia 33.1149
lfoot -11.6376 -7.89307
ltoes -4.10829
925
root 41.7901 17.2655 -10.5901 682.865 79.1422 685.095
lowerback 20.0913 -0.0267464 3.4242
upperback 7.59089 1.14493 1.48394
thorax -2.99738 0.790118 -0.629461
lowerneck -0.404487 2.81792 8.22986
upperneck -11.1488 3.57659 -6.8274
head -2.96238 1.79765 -3.50618
rclavicle -1.54058e-014 2.16675e-014
rhumerus -40.9827 3.10168 -79.2772
rradius 54.9445
rwrist 0.879602
rhand -12.9741 -16.3688
rfingers 7.12502
rthumb 13.1182 -45.9362
lclavicle -1.54058e-014 2.16675e-014
lhumerus -42.6155 -3.29954 77.2077
lradius 40.8426
lwrist -5.29992
lhand 1.4043 6.39721
lfingers 7.12502
lthumb 26.9347 34.4977
rfemur -2.16776 17.1108 28.1154
rtibia 28.3137
rfoot -21.865 1.9507
rtoes 2.61684
lfemur -22.4027 0.0143673 -5.96371
ltibia 33.7837
lfoot -12.1342 -8.12957
ltoes -4.01765
926
root 41.8325 17.2569 -10.6087 682.748 78.8204 684.933
lowerback 20.1039 -0.0303468 3.49665
upperback 7.60729 1.14814 1.38806
thorax -2.98226 0.793812 -0.773011
lowerneck -0.336617 2.81789 8.2106
upperneck -10.921 3.64433 -6.32209
head -3.24654 1.79359 -3.69677
rclavicle -1.59028e-014 -9.34288e-015
rhumerus -41.1778 2.82031 -79.574
rradius 55.1179
rwrist 0.948341
rhand -13.136 -16.3992
rfingers 7.12502
rthumb 12.9621 -45.9765
lclavicle -1.59028e-014 -9.34288e-015
lhumerus -42.0361 -3.13998 76.6234
lradius 40.8746
lwrist -5.47054
lhand 1.71666 6.81842
lfingers 7.12502
lthumb 27.2336 34.8724
rfemur -2.08187 17.1849 28.2755
rtibia 28.3011
rfoot -21.9385 2.0755
rtoes 2.54876
lfemur -22.534 0.467669 -5.80993
ltibia 34.3833
lfoot -12.5773 -8.3093
ltoes -3.94329
927
root 41.8739 17.2512 -10.6284 682.697 78.5051 684.794
lowerback 20.0983 -0.0355205 3.58357
upperback 7.59882 1.15026 1.29904
thorax -2.98432 0.795721 -0.917264
lowerneck -0.323789 2.82716 8.17937
upperneck -10.9329 3.6738 -6.12276
head -3.25355 1.80228 -3.62118
rclavicle 1.63997e-014 -1.19271e-014
rhumerus -41.3825 2.62197 -79.8732
rradius 55.2823
rwrist 1.01081
rhand -13.1894 -16.4192
rfingers 7.12502
rthumb 12.9106 -45.9998
lclavicle 1.63997e-014 -1.19271e-014
lhumerus -41.4876 -2.90659 76.0429
lradius 40.9871
lwrist -5.66864
lhand 1.83079 7.13056
lfingers 7.12502
lthumb 27.3428 35.1674
rfemur -2.02203 17.2644 28.4122
rtibia 28.2351
rfoot -21.976 2.20743
rtoes 2.4882
lfemur -22.6657 0.883776 -5.66199
ltibia 34.8973
lfoot -12.9774 -8.43607
ltoes -3.9042
928
root 41.9141 17.2486 -10.6489 682.848 78.2116 684.818
lowerback 20.0678 -0.0384373 3.64502
upperback 7.56967 1.14803 1.21159
thorax -2.99661 0.793874 -1.04433
lowerneck -0.320107 2.84842 8.14364
upperneck -10.9366 3.71463 -5.97024
head -3.25454 1.81848 -3.56107
rclavicle 9.64106e-015 1.35174e-014
rhumerus -41.5845 2.52308 -80.1736
rradius 55.4323
rwrist 1.08433
rhand -13.1198 -16.4305
rfingers 7.12502
rthumb 12.9777 -46.0069
lclavicle 9.64106e-015 1.35174e-014
lhumerus -40.9743 -2.59102 75.4729
lradius 41.1581
lwrist -5.92392
lhand 1.68078 7.25707
lfingers 7.12502
lthumb 27.1993 35.3164
rfemur -1.99892 17.3526 28.489
rtibia 28.1369
rfoot -21.9926 2.34769
rtoes 2.43505
lfemur -22.7889 1.2548 -5.55629
ltibia 35.3101
lfoot -13.3288 -8.49879
ltoes -3.88176
929
root 41.9533 17.2492 -10.6701 683.305 77.9612 685.116
lowerback 20.0083 -0.0328477 3.65149
upperback 7.5257 1.14328 1.11243
thorax -3.01103 0.789223 -1.15188
lowerneck -0.341379 2.87811 8.10464
upperneck -10.926 3.76208 -5.85189
head -3.24491 1.83929 -3.51138
rclavicle -9.54166e-015 -2.78299e-015
rhumerus -41.7756 2.51376 -80.4804
rradius 55.5571
rwrist 1.18053
rhand -12.9439 -16.4205
rfingers 7.12502
rthumb 13.1473 -45.986
lclavicle -9.54166e-015 -2.78299e-015
lhumerus -40.4901 -2.22257 74.9185
lradius 41.3824
lwrist -6.21634
lhand 1.23896 7.1858
lfingers 7.12502
lthumb 26.7765 35.3106
rfemur -2.01785 17.4471 28.4704
rtibia 28.026
rfoot -22.0008 2.49529
rtoes 2.38062
lfemur -22.8963 1.57111 -5.53082
ltibia 35.6142
lfoot -13.6288 -8.4981
ltoes -3.86786
930
root 41.9915 17.2529 -10.6916 684.085 77.7593 685.705
lowerback 19.9234 -0.0204468 3.58725
upperback 7.46395 1.13107 1.00118
thorax -3.03321 0.778969 -1.23038
lowerneck -0.352736 2.91792 8.04331
upperneck -10.9199 3.82197 -5.74746
head -3.23784 1.86774 -3.46306
rclavicle 1.78906e-014 -1.51076e-014
rhumerus -41.9633 2.60572 -80.7942
rradius 55.6583
rwrist 1.31776
rhand -12.6605 -16.3863
rfingers 7.12502
rthumb 13.4204 -45.934
lclavicle 1.78906e-014 -1.51076e-014
lhumerus -40.0508 -1.80305 74.3828
lradius 41.6666
lwrist -6.50978
lhand 0.536905 6.95269
lfingers 7.12502
lthumb 26.1045 35.1785
rfemur -2.08272 17.5458 28.3475
rtibia 27.9196
rfoot -22.0121 2.64912
rtoes 2.32971
lfemur -22.9863 1.83157 -5.59584
ltibia 35.8079
lfoot -13.871 -8.43733
ltoes -3.85319
931
root 42.0287 17.2592 -10.7129 685.163 77.6038 686.572
lowerback 19.8168 0.000199667 3.45348
upperback 7.38678 1.11397 0.875242
thorax -3.06222 0.764679 -1.28382
lowerneck -0.35958 2.95827 7.9662
upperneck -10.9161 3.88169 -5.65099
head -3.23257 1.89703 -3.41486
rclavicle -9.93923e-016 -3.97569e-016
rhumerus -42.1511 2.78493 -81.1154
rradius 55.7337
rwrist 1.50787
rhand -12.279 -16.3173
rfingers 7.12502
rthumb 13.7881 -45.8404
lclavicle -9.93923e-016 -3.97569e-016
lhumerus -39.6563 -1.35871 73.8702
lradius 42.0044
lwrist -6.77084
lhand -0.414705 6.5632
lfingers 7.12502
lthumb 25.1931 34.9204
rfemur -2.18836 17.6514 28.1263
rtibia 27.8257
rfoot -22.0336 2.8029
rtoes 2.27713
lfemur -23.0566 2.03766 -5.74858
ltibia 35.8995
lfoot -14.0586 -8.32361
ltoes -3.83621
